<svg xmlns="http://www.w3.org/2000/svg" width="24" height="24" viewBox="0 0 24 24"><g fill="none" fill-rule="evenodd"><rect width="24" height="24"/><g fill="#2CBD3E" transform="translate(1 1)"><circle cx="11" cy="11" r="9" fill-opacity=".24"/><path fill-rule="nonzero" d="M10.4142136,11 L13.7071068,14.2928932 C14.0976311,14.6834175 14.0976311,15.3165825 13.7071068,15.7071068 C13.3165825,16.0976311 12.6834175,16.0976311 12.2928932,15.7071068 L8.29289322,11.7071068 C7.90236893,11.3165825 7.90236893,10.6834175 8.29289322,10.2928932 L12.2928932,6.29289322 C12.6834175,5.90236893 13.3165825,5.90236893 13.7071068,6.29289322 C14.0976311,6.68341751 14.0976311,7.31658249 13.7071068,7.70710678 L10.4142136,11 Z M11,0 C17.0751322,0 22,4.92486775 22,11 C22,17.0751322 17.0751322,22 11,22 C4.92486775,22 0,17.0751322 0,11 C0,4.92486775 4.92486775,0 11,0 Z M11,2 C6.02943725,2 2,6.02943725 2,11 C2,15.9705627 6.02943725,20 11,20 C15.9705627,20 20,15.9705627 20,11 C20,6.02943725 15.9705627,2 11,2 Z" transform="matrix(1 0 0 -1 0 22)"/></g></g></svg>