<svg xmlns="http://www.w3.org/2000/svg" width="24" height="24" viewBox="0 0 24 24"><g fill="none" fill-rule="evenodd"><rect width="24" height="24"/><g fill="#2CBD3E" transform="translate(2 2)"><rect width="16" height="16" x="2" y="2" fill-opacity=".24"/><path fill-rule="nonzero" d="M7.29289322,6.70710678 C6.90236893,6.31658249 6.90236893,5.68341751 7.29289322,5.29289322 C7.68341751,4.90236893 8.31658249,4.90236893 8.70710678,5.29289322 L12.7071068,9.29289322 C13.0976311,9.68341751 13.0976311,10.3165825 12.7071068,10.7071068 L8.70710678,14.7071068 C8.31658249,15.0976311 7.68341751,15.0976311 7.29289322,14.7071068 C6.90236893,14.3165825 6.90236893,13.6834175 7.29289322,13.2928932 L10.5857864,10 L7.29289322,6.70710678 Z M2,0 L18,0 C19.1045695,0 20,0.8954305 20,2 L20,18 C20,19.1045695 19.1045695,20 18,20 L2,20 C0.8954305,20 0,19.1045695 0,18 L0,2 C0,0.8954305 0.8954305,0 2,0 Z M2,2 L2,18 L18,18 L18,2 L2,2 Z"/></g></g></svg>