<svg xmlns="http://www.w3.org/2000/svg" width="24" height="24" viewBox="0 0 24 24"><g fill="none" fill-rule="evenodd"><rect width="24" height="24"/><g fill="#2CBD3E" transform="translate(2 2)"><rect width="16" height="16" x="2" y="2" fill-opacity=".24"/><path fill-rule="nonzero" d="M9.41421356,10 L12.7071068,13.2928932 C13.0976311,13.6834175 13.0976311,14.3165825 12.7071068,14.7071068 C12.3165825,15.0976311 11.6834175,15.0976311 11.2928932,14.7071068 L7.29289322,10.7071068 C6.90236893,10.3165825 6.90236893,9.68341751 7.29289322,9.29289322 L11.2928932,5.29289322 C11.6834175,4.90236893 12.3165825,4.90236893 12.7071068,5.29289322 C13.0976311,5.68341751 13.0976311,6.31658249 12.7071068,6.70710678 L9.41421356,10 Z M2,20 C0.8954305,20 0,19.1045695 0,18 L0,2 C0,0.8954305 0.8954305,0 2,0 L18,0 C19.1045695,0 20,0.8954305 20,2 L20,18 C20,19.1045695 19.1045695,20 18,20 L2,20 Z M2,18 L18,18 L18,2 L2,2 L2,18 Z" transform="matrix(1 0 0 -1 0 20)"/></g></g></svg>