<svg xmlns="http://www.w3.org/2000/svg" width="24" height="24" viewBox="0 0 24 24"><g fill="none" fill-rule="evenodd"><rect width="24" height="24"/><g fill="#2CBD3E" transform="translate(1 1)"><circle cx="11" cy="11" r="9" fill-opacity=".24"/><path fill-rule="nonzero" d="M8.29289322,7.70710678 C7.90236893,7.31658249 7.90236893,6.68341751 8.29289322,6.29289322 C8.68341751,5.90236893 9.31658249,5.90236893 9.70710678,6.29289322 L13.7071068,10.2928932 C14.0976311,10.6834175 14.0976311,11.3165825 13.7071068,11.7071068 L9.70710678,15.7071068 C9.31658249,16.0976311 8.68341751,16.0976311 8.29289322,15.7071068 C7.90236893,15.3165825 7.90236893,14.6834175 8.29289322,14.2928932 L11.5857864,11 L8.29289322,7.70710678 Z M11,22 C4.92486775,22 0,17.0751322 0,11 C0,4.92486775 4.92486775,0 11,0 C17.0751322,0 22,4.92486775 22,11 C22,17.0751322 17.0751322,22 11,22 Z M11,20 C15.9705627,20 20,15.9705627 20,11 C20,6.02943725 15.9705627,2 11,2 C6.02943725,2 2,6.02943725 2,11 C2,15.9705627 6.02943725,20 11,20 Z"/></g></g></svg>